<svg xmlns="http://www.w3.org/2000/svg"
    xmlns:xlink="http://www.w3.org/1999/xlink">
    <defs>
        <symbol id="icon-globe" viewBox="0 0 64 64">
            <path d="M54.63,9.37A32,32,0,0,0,9.37,54.63,31.82,31.82,0,0,0,32,64h0A32,32,0,0,0,54.63,9.37ZM33.55,62H33V43a37.25,37.25,0,0,1,11.79,2A40.88,40.88,0,0,1,33.55,62Zm-14.34-17A37.25,37.25,0,0,1,31,43V62h-.55A40.88,40.88,0,0,1,19.21,44.94ZM30.45,2H31V21a37.25,37.25,0,0,1-11.79-2A40.85,40.85,0,0,1,30.45,2Zm14.34,17A37.25,37.25,0,0,1,33,21V2h.55A40.85,40.85,0,0,1,44.79,19.06ZM33,23a40.25,40.25,0,0,0,12.4-2,39.35,39.35,0,0,1,1.53,10H33Zm-2,0v8H17.07A39.35,39.35,0,0,1,18.6,21,40.25,40.25,0,0,0,31,23ZM15.08,31H2A29.72,29.72,0,0,1,8.08,13.88a20.82,20.82,0,0,0,8.62,6.38A42.4,42.4,0,0,0,15.08,31Zm0,2A42.4,42.4,0,0,0,16.7,43.74a20.82,20.82,0,0,0-8.62,6.38A29.72,29.72,0,0,1,2,33Zm2,0H31v8a40.25,40.25,0,0,0-12.4,2A39.35,39.35,0,0,1,17.07,33ZM33,41V33H46.93A39.35,39.35,0,0,1,45.4,43,40.25,40.25,0,0,0,33,41Zm15.92-8H62a29.72,29.72,0,0,1-6.06,17.12,20.91,20.91,0,0,0-8.62-6.38A42.4,42.4,0,0,0,48.92,33Zm0-2A42.4,42.4,0,0,0,47.3,20.26a20.82,20.82,0,0,0,8.62-6.38A29.72,29.72,0,0,1,62,31Zm5.69-18.72a19,19,0,0,1-7.93,6A42.81,42.81,0,0,0,36.86,2.39a29.83,29.83,0,0,1,16.36,8.39C53.7,11.27,54.16,11.77,54.61,12.28ZM27.14,2.39a42.81,42.81,0,0,0-9.82,15.92,19,19,0,0,1-7.93-6c.45-.51.91-1,1.39-1.5A29.83,29.83,0,0,1,27.14,2.39ZM9.39,51.72a19,19,0,0,1,7.93-6,42.81,42.81,0,0,0,9.82,15.92,29.8,29.8,0,0,1-16.36-8.39C10.3,52.74,9.84,52.23,9.39,51.72Zm27.47,9.89a42.81,42.81,0,0,0,9.82-15.92,19,19,0,0,1,7.93,6c-.45.51-.91,1-1.39,1.5A29.8,29.8,0,0,1,36.86,61.61Z"/>
        </symbol>
        <symbol id="icon-cup" viewBox="0 0 64 64">
            <path d="M49,6V0H15V6H6V7c0,.1.11,9.32,9,10V27c0,5.12,6.53,8.74,16,9V62H20v2H44V62H33V36c9.47-.24,16-3.86,16-9V17c8.89-.64,9-9.86,9-10V6ZM8.08,8H15v7C9.6,14.46,8.36,10,8.08,8ZM47,27c0,3.48-5.15,7-15,7s-15-3.52-15-7V2H47Zm2-12V8h6.92C55.65,10,54.43,14.46,49,15Z"/>
        </symbol>
        <symbol id="icon-location" viewBox="0 0 64 64">
            <path d="M32,14.87a6.95,6.95,0,1,0,7,6.94A7,7,0,0,0,32,14.87Zm0,11.9a5,5,0,1,1,5-5A5,5,0,0,1,32,26.77Z"/>
            <path d="M32,0C19.87,0,10,10.11,10,22.54,10,38.13,30.34,62.1,31.2,63.11L32,64l.77-.89c.87-1,21.34-25,21.27-40.57C54,10.11,44.08,0,32,0Zm0,60.91c-3.74-4.56-20-25.15-20-38.37C12,11.21,21,2,32,2s20,9.23,20,20.57C52.06,35.76,35.73,56.35,32,60.91Z"/>
        </symbol>
        <symbol id="icon-key" viewBox="0 0 64 26">
            <path d="M51,19A13,13,0,1,0,64,32,13,13,0,0,0,51,19Zm0,24A11,11,0,1,1,62,32,11,11,0,0,1,51,43Z" transform="translate(0 -19)"/>
            <polygon points="0 12 0 14 5 14 5 23 7 23 7 14 13 14 13 19 15 19 15 14 38 14 38 13 38 12 0 12"/>
        </symbol>
        <symbol id="icon-screen" viewBox="0 0 64 55">
            <path d="M0,9V52H31V62H22v2H42V62H33V52H64V9ZM62,50H2V44H62ZM2,42V11H62V42Z" transform="translate(0 -9)"/>
        </symbol>
        <symbol id="icon-lock" viewBox="0 0 50 64">
            <path d="M49,32V17a17,17,0,0,0-34,0V32H7V64H57V32ZM17,17a15,15,0,0,1,30,0V32H17ZM55,62H9V34H55Z" transform="translate(-7)"/>
            <path d="M31,51.9V55h2V51.9a5,5,0,1,0-2,0ZM32,44a3,3,0,1,1-3,3A3,3,0,0,1,32,44Z" transform="translate(-7)"/>
        </symbol>
    </defs>
</svg>
