<svg xmlns="http://www.w3.org/2000/svg"
    xmlns:xlink="http://www.w3.org/1999/xlink">
    <defs>
        <symbol id="icon-globe" viewBox="0 0 64 64">
            <path d="M54.63,9.37A32,32,0,0,0,9.37,54.63,31.82,31.82,0,0,0,32,64h0A32,32,0,0,0,54.63,9.37ZM33.55,62H33V43a37.25,37.25,0,0,1,11.79,2A40.88,40.88,0,0,1,33.55,62Zm-14.34-17A37.25,37.25,0,0,1,31,43V62h-.55A40.88,40.88,0,0,1,19.21,44.94ZM30.45,2H31V21a37.25,37.25,0,0,1-11.79-2A40.85,40.85,0,0,1,30.45,2Zm14.34,17A37.25,37.25,0,0,1,33,21V2h.55A40.85,40.85,0,0,1,44.79,19.06ZM33,23a40.25,40.25,0,0,0,12.4-2,39.35,39.35,0,0,1,1.53,10H33Zm-2,0v8H17.07A39.35,39.35,0,0,1,18.6,21,40.25,40.25,0,0,0,31,23ZM15.08,31H2A29.72,29.72,0,0,1,8.08,13.88a20.82,20.82,0,0,0,8.62,6.38A42.4,42.4,0,0,0,15.08,31Zm0,2A42.4,42.4,0,0,0,16.7,43.74a20.82,20.82,0,0,0-8.62,6.38A29.72,29.72,0,0,1,2,33Zm2,0H31v8a40.25,40.25,0,0,0-12.4,2A39.35,39.35,0,0,1,17.07,33ZM33,41V33H46.93A39.35,39.35,0,0,1,45.4,43,40.25,40.25,0,0,0,33,41Zm15.92-8H62a29.72,29.72,0,0,1-6.06,17.12,20.91,20.91,0,0,0-8.62-6.38A42.4,42.4,0,0,0,48.92,33Zm0-2A42.4,42.4,0,0,0,47.3,20.26a20.82,20.82,0,0,0,8.62-6.38A29.72,29.72,0,0,1,62,31Zm5.69-18.72a19,19,0,0,1-7.93,6A42.81,42.81,0,0,0,36.86,2.39a29.83,29.83,0,0,1,16.36,8.39C53.7,11.27,54.16,11.77,54.61,12.28ZM27.14,2.39a42.81,42.81,0,0,0-9.82,15.92,19,19,0,0,1-7.93-6c.45-.51.91-1,1.39-1.5A29.83,29.83,0,0,1,27.14,2.39ZM9.39,51.72a19,19,0,0,1,7.93-6,42.81,42.81,0,0,0,9.82,15.92,29.8,29.8,0,0,1-16.36-8.39C10.3,52.74,9.84,52.23,9.39,51.72Zm27.47,9.89a42.81,42.81,0,0,0,9.82-15.92,19,19,0,0,1,7.93,6c-.45.51-.91,1-1.39,1.5A29.8,29.8,0,0,1,36.86,61.61Z"/>
        </symbol>
        <symbol id="icon-cup" viewBox="0 0 64 64">
            <path d="M49,6V0H15V6H6V7c0,.1.11,9.32,9,10V27c0,5.12,6.53,8.74,16,9V62H20v2H44V62H33V36c9.47-.24,16-3.86,16-9V17c8.89-.64,9-9.86,9-10V6ZM8.08,8H15v7C9.6,14.46,8.36,10,8.08,8ZM47,27c0,3.48-5.15,7-15,7s-15-3.52-15-7V2H47Zm2-12V8h6.92C55.65,10,54.43,14.46,49,15Z"/>
        </symbol>
        <symbol id="icon-location" viewBox="0 0 64 64">
            <path d="M32,14.87a6.95,6.95,0,1,0,7,6.94A7,7,0,0,0,32,14.87Zm0,11.9a5,5,0,1,1,5-5A5,5,0,0,1,32,26.77Z"/>
            <path d="M32,0C19.87,0,10,10.11,10,22.54,10,38.13,30.34,62.1,31.2,63.11L32,64l.77-.89c.87-1,21.34-25,21.27-40.57C54,10.11,44.08,0,32,0Zm0,60.91c-3.74-4.56-20-25.15-20-38.37C12,11.21,21,2,32,2s20,9.23,20,20.57C52.06,35.76,35.73,56.35,32,60.91Z"/>
        </symbol>
        <symbol id="icon-key" viewBox="0 0 32 32">
            <path d="M14.683 14.698c0.117 0 0.235-0.041 0.33-0.124l11.317-9.922-0.66-0.752-11.317 9.921c-0.208 0.182-0.229 0.498-0.046 0.706 0.099 0.113 0.237 0.171 0.376 0.171zM10.188 32c6.142 0 9.812-4.83 9.812-9.5 0-1.346-0.322-2.829-0.798-3.792l4.522-2.261c0.169-0.085 0.276-0.258 0.276-0.447v-4h3c0.011 0 0.102-0.006 0.113-0.006 0.666-0.045 0.865-0.257 0.887-0.994v-4h3c0.129 0 0.218 0.014 0.278 0.023 0.121 0.019 0.347 0.054 0.543-0.122 0.202-0.18 0.193-0.408 0.185-0.609-0.002-0.072-0.006-0.167-0.006-0.292v-4.531c0-0.81-0.659-1.469-1.469-1.469h-3.875c-0.354 0-0.698 0.129-0.969 0.364l-13.187 11.56c-0.649-0.13-1.63-0.299-2.313-0.299-5.617 0-10.187 4.57-10.187 10.187s4.57 10.188 10.188 10.188zM10.188 12.625c0.501 0 1.359 0.12 2.354 0.328 0.155 0.034 0.314-0.010 0.432-0.113l13.371-11.722c0.087-0.076 0.198-0.118 0.311-0.118h3.875c0.259 0 0.469 0.21 0.469 0.469v4.531h-3.5c-0.276 0-0.5 0.224-0.5 0.5v4.5h-3.5c-0.276 0-0.5 0.224-0.5 0.5v4.191l-4.724 2.362c-0.131 0.065-0.227 0.186-0.262 0.328s-0.006 0.293 0.080 0.412c0.44 0.607 0.906 2.114 0.906 3.707 0 4.178-3.296 8.5-8.812 8.5-5.066 0-9.188-4.122-9.188-9.188s4.122-9.187 9.188-9.187zM8.5 27c1.93 0 3.5-1.57 3.5-3.5s-1.57-3.5-3.5-3.5-3.5 1.57-3.5 3.5 1.57 3.5 3.5 3.5zM8.5 21c1.378 0 2.5 1.122 2.5 2.5s-1.122 2.5-2.5 2.5-2.5-1.122-2.5-2.5 1.122-2.5 2.5-2.5z"></path>
        </symbol>
        <symbol id="icon-screen" viewBox="0 0 64 55">
            <path d="M0,9V52H31V62H22v2H42V62H33V52H64V9ZM62,50H2V44H62ZM2,42V11H62V42Z" transform="translate(0 -9)"/>
        </symbol>
        <symbol id="icon-lock" viewBox="0 0 50 64">
            <path d="M49,32V17a17,17,0,0,0-34,0V32H7V64H57V32ZM17,17a15,15,0,0,1,30,0V32H17ZM55,62H9V34H55Z" transform="translate(-7)"/>
            <path d="M31,51.9V55h2V51.9a5,5,0,1,0-2,0ZM32,44a3,3,0,1,1-3,3A3,3,0,0,1,32,44Z" transform="translate(-7)"/>
        </symbol>
        <symbol id="icon-heart" viewBox="0 0 32 32">
            <title>heart-full</title>
            <path d="M16.042 8.345c0 0-2-4.262-6.5-4.262-4.917 0-7.5 4.167-7.5 8.333 0 6.917 14 15.5 14 15.5s13.916-8.5 13.916-15.5c0-4.25-2.666-8.333-7.416-8.333s-6.5 4.262-6.5 4.262z"></path>
        </symbol>
        <symbol id="icon-location" viewBox="0 0 24 32">
            <path d="M12 0c-6.617 0-12 5.394-12 12.022 0 9.927 11.201 19.459 11.678 19.86 0.093 0.079 0.208 0.118 0.322 0.118s0.226-0.038 0.318-0.114c0.477-0.394 11.682-9.762 11.682-19.864 0-6.628-5.383-12.022-12-12.022zM12.002 30.838c-1.841-1.645-11.002-10.259-11.002-18.816 0-6.078 4.935-11.022 11-11.022s11 4.944 11 11.022c0 8.702-9.152 17.193-10.998 18.816zM12 6c-3.309 0-6 2.691-6 6s2.691 6 6 6 6-2.691 6-6-2.691-6-6-6zM12 17c-2.757 0-5-2.243-5-5s2.243-5 5-5 5 2.243 5 5-2.243 5-5 5z"></path>
        </symbol>
        <symbol id="icon-expand" viewBox="0 0 32 32">
            <path d="M32 30.5v-29c0-0.827-0.673-1.5-1.5-1.5h-29c-0.827 0-1.5 0.673-1.5 1.5v9c0 0.276 0.224 0.5 0.5 0.5s0.5-0.224 0.5-0.5v-9c0-0.276 0.225-0.5 0.5-0.5h29c0.275 0 0.5 0.224 0.5 0.5v29c0 0.276-0.225 0.5-0.5 0.5h-9c-0.276 0-0.5 0.224-0.5 0.5s0.224 0.5 0.5 0.5h9c0.827 0 1.5-0.673 1.5-1.5zM1.5 13c-0.827 0-1.5 0.673-1.5 1.5v16c0 0.827 0.673 1.5 1.5 1.5h16c0.827 0 1.5-0.673 1.5-1.5v-16.793l7-7v6.793c0 0.276 0.224 0.5 0.5 0.5s0.5-0.224 0.5-0.5v-8c0-0.276-0.224-0.5-0.5-0.5h-8c-0.276 0-0.5 0.224-0.5 0.5s0.224 0.5 0.5 0.5h6.792l-7 7h-16.792zM18 30.5c0 0.276-0.225 0.5-0.5 0.5h-16c-0.275 0-0.5-0.224-0.5-0.5v-16c0-0.276 0.225-0.5 0.5-0.5h16.5v16.5z"></path>
        </symbol>
        <symbol id="icon-person" viewBox="0 0 36 32">
            <path d="M0.5 31.983c0.268 0.067 0.542-0.088 0.612-0.354 1.030-3.843 5.216-4.839 7.718-5.435 0.627-0.149 1.122-0.267 1.444-0.406 2.85-1.237 3.779-3.227 4.057-4.679 0.034-0.175-0.029-0.355-0.165-0.473-1.484-1.281-2.736-3.204-3.526-5.416-0.022-0.063-0.057-0.121-0.103-0.171-1.045-1.136-1.645-2.337-1.645-3.294 0-0.559 0.211-0.934 0.686-1.217 0.145-0.087 0.236-0.24 0.243-0.408 0.221-5.094 3.849-9.104 8.299-9.13 0.005 0 0.102 0.007 0.107 0.007 4.472 0.062 8.077 4.158 8.206 9.324 0.004 0.143 0.068 0.277 0.178 0.369 0.313 0.265 0.459 0.601 0.459 1.057 0 0.801-0.427 1.786-1.201 2.772-0.037 0.047-0.065 0.101-0.084 0.158-0.8 2.536-2.236 4.775-3.938 6.145-0.144 0.116-0.212 0.302-0.178 0.483 0.278 1.451 1.207 3.44 4.057 4.679 0.337 0.146 0.86 0.26 1.523 0.403 2.477 0.536 6.622 1.435 7.639 5.232 0.060 0.223 0.262 0.37 0.482 0.37 0.043 0 0.086-0.006 0.13-0.017 0.267-0.072 0.425-0.346 0.354-0.613-1.175-4.387-5.871-5.404-8.393-5.95-0.585-0.127-1.090-0.236-1.336-0.344-1.86-0.808-3.006-2.039-3.411-3.665 1.727-1.483 3.172-3.771 3.998-6.337 0.877-1.14 1.359-2.314 1.359-3.317 0-0.669-0.216-1.227-0.644-1.663-0.238-5.604-4.237-10.017-9.2-10.088l-0.149-0.002c-4.873 0.026-8.889 4.323-9.24 9.83-0.626 0.46-0.944 1.105-0.944 1.924 0 1.183 0.669 2.598 1.84 3.896 0.809 2.223 2.063 4.176 3.556 5.543-0.403 1.632-1.55 2.867-3.414 3.676-0.241 0.105-0.721 0.22-1.277 0.352-2.541 0.604-7.269 1.729-8.453 6.147-0.071 0.267 0.087 0.54 0.354 0.612z"></path>
        </symbol>
    </defs>
</svg>
